<?xml version="1.0" standalone="no"?><!-- Generator: Gravit.io --><svg xmlns="http://www.w3.org/2000/svg" xmlns:xlink="http://www.w3.org/1999/xlink" style="isolation:isolate" viewBox="0 0 450 450" width="450" height="450"><defs><clipPath id="_clipPath_TKJDdRyWpmhG1fyONbJXsTShXifKmjzG"><rect width="450" height="450"/></clipPath></defs><g clip-path="url(#_clipPath_TKJDdRyWpmhG1fyONbJXsTShXifKmjzG)"><g id="Group"><path d=" M 143 430 L 143 394.125 C 143 379.795 154.296 368.5 168.625 368.5 C 182.955 368.5 194.25 379.795 194.25 394.125 L 194.25 430 L 143 430 Z  M 307 430 L 307 394.125 C 307 379.795 295.705 368.5 281.375 368.5 C 274.56 368.439 268.007 371.119 263.188 375.938 C 258.369 380.757 255.689 387.31 255.75 394.125 L 255.75 430 L 307 430 Z " fill="rgb(84,110,122)"/><path d=" M 281.375 368.5 C 274.56 368.439 268.007 371.119 263.188 375.938 C 258.369 380.757 255.689 387.31 255.75 394.125 L 255.75 419.75 L 307 402.325 L 307 394.125 C 307 379.795 295.705 368.5 281.375 368.5 Z  M 168.625 368.5 C 161.81 368.439 155.257 371.119 150.438 375.938 C 145.619 380.757 142.939 387.31 143 394.125 L 143 402.325 L 194.25 419.75 L 194.25 394.125 C 194.25 379.795 182.955 368.5 168.625 368.5 Z " fill="rgb(55,71,79)"/><path d=" M 409.5 348 L 225 409.5 L 40.5 348 L 40.5 266 L 409.5 266 L 409.5 348 Z  M 50.75 112.25 L 30.25 112.25 L 30.25 225 L 50.75 225 L 50.75 112.25 Z  M 20 214.75 L 20 276.25 C 26.171 279.325 33.325 282.421 40.5 282.421 C 47.675 282.421 54.829 280.33 61 276.25 L 61 214.75 L 20 214.75 Z  M 419.75 112.25 L 399.25 112.25 L 399.25 225 L 419.75 225 L 419.75 112.25 Z  M 389 214.75 L 389 276.25 C 395.17 279.325 402.325 282.421 409.5 282.421 C 416.675 282.421 423.83 280.33 430 276.25 L 430 214.75 L 389 214.75 Z  M 266 132.75 C 266 81.5 225 20 225 20 C 225 20 184 83.55 184 132.75 L 184 245.5 L 266 245.5 L 266 132.75 Z " fill="rgb(121,134,203)"/><path d=" M 40.5 194.25 C 51.796 194.25 61 203.455 61 214.75 C 61 226.046 51.796 235.25 40.5 235.25 C 29.204 235.25 20 226.046 20 214.75 C 20 203.455 29.204 194.25 40.5 194.25 Z  M 389 214.75 C 389 226.046 398.205 235.25 409.5 235.25 C 420.795 235.25 430 226.046 430 214.75 C 430 203.455 420.795 194.25 409.5 194.25 C 398.205 194.25 389 203.455 389 214.75 Z  M 389 249.58 L 389 358.25 C 389 369.545 398.205 378.75 409.5 378.75 C 420.795 378.75 430 369.545 430 358.25 L 430 249.58 C 423.83 252.665 416.675 255.75 409.5 255.75 C 402.325 255.75 395.17 253.7 389 249.58 Z  M 20 249.58 L 20 358.25 C 20 369.545 29.204 378.75 40.5 378.75 C 51.796 378.75 61 369.545 61 358.25 L 61 249.58 C 54.829 253.71 47.675 255.75 40.5 255.75 C 33.325 255.75 26.171 253.7 20 249.58 Z  M 293.675 235.25 L 235.25 235.25 L 235.25 173.75 C 235.25 168.625 230.125 163.5 225 163.5 C 219.875 163.5 214.75 168.625 214.75 173.75 L 214.75 235.25 L 156.325 235.25 C 149.171 235.25 143 241.421 143 248.575 L 143 303.925 C 143 312.125 147.08 319.3 155.3 323.421 L 225 358.25 L 294.7 323.42 C 301.875 319.29 307 312.125 307 303.915 L 307 248.585 C 307 241.41 300.83 235.25 293.675 235.25 Z " fill="rgb(197,202,233)"/><path d=" M 266 299.825 C 266 322.375 184 322.375 184 299.825 C 184 277.296 202.45 258.825 225 258.825 C 247.55 258.825 266 277.296 266 299.825 Z " fill="rgb(26,35,126)"/><path d=" M 50.75 102 L 50.75 122.5 L 30.25 122.5 L 30.25 102 C 30.25 95.83 34.329 91.75 40.5 91.75 C 46.671 91.75 50.75 95.83 50.75 102 Z  M 409.5 91.75 C 403.33 91.75 399.25 95.83 399.25 102 L 399.25 122.5 L 419.75 122.5 L 419.75 102 C 419.75 95.83 415.67 91.75 409.5 91.75 Z " fill="rgb(255,61,0)"/></g></g></svg>