<?xml version="1.0" encoding="iso-8859-1"?>
<!-- Uploaded to: SVG Repo, www.svgrepo.com, Generator: SVG Repo Mixer Tools -->
<svg fill="#000000" height="800px" width="800px" version="1.1" id="Layer_1" xmlns="http://www.w3.org/2000/svg" xmlns:xlink="http://www.w3.org/1999/xlink" 
	 viewBox="0 0 512 512" xml:space="preserve">
<g>
	<g>
		<path d="M323.304,256.001l59.315-59.315c3.866-3.867,5.995-9.005,5.995-14.472c0-5.467-2.129-10.607-5.995-14.471l-38.36-38.36
			c-3.865-3.865-9.004-5.994-14.471-5.994c-5.467,0-10.605,2.129-14.471,5.994l-59.316,59.316l-59.317-59.316
			c-3.865-3.865-9.004-5.994-14.471-5.994c-5.467,0-10.606,2.129-14.471,5.994l-38.36,38.36c-7.979,7.979-7.979,20.962,0,28.943
			l59.316,59.316l-59.316,59.317c-7.979,7.979-7.979,20.962,0,28.943l38.36,38.36c3.865,3.865,9.004,5.994,14.471,5.994
			c5.467,0,10.606-2.129,14.471-5.994l59.317-59.316l59.316,59.316c3.865,3.865,9.004,5.994,14.471,5.994
			c5.467,0,10.606-2.129,14.471-5.994l38.36-38.36c3.866-3.865,5.995-9.004,5.995-14.471c0-5.467-2.129-10.607-5.995-14.471
			L323.304,256.001z M370.84,332.479l-38.36,38.36c-0.971,0.971-2.103,1.115-2.692,1.115c-0.589,0-1.722-0.144-2.692-1.115
			l-65.206-65.206c-1.626-1.626-3.758-2.44-5.889-2.44s-4.263,0.813-5.889,2.44l-65.206,65.206
			c-0.971,0.971-2.103,1.115-2.692,1.115c-0.59,0-1.722-0.144-2.693-1.115l-38.36-38.36c-1.484-1.485-1.484-3.9,0-5.385
			l65.206-65.206c3.253-3.253,3.253-8.527,0-11.778l-65.206-65.206c-1.484-1.485-1.484-3.9,0-5.385l38.359-38.36
			c0.971-0.971,2.104-1.115,2.693-1.115c0.589,0,1.722,0.144,2.692,1.115l65.206,65.206c3.253,3.253,8.527,3.253,11.778,0
			l65.206-65.206c0.971-0.971,2.103-1.115,2.692-1.115s1.722,0.144,2.692,1.115l38.36,38.36c0.971,0.971,1.115,2.103,1.115,2.692
			c0,0.589-0.143,1.722-1.114,2.693l-65.204,65.206c-3.253,3.253-3.253,8.527,0,11.778l65.204,65.207
			c0.971,0.971,1.115,2.103,1.115,2.692S371.811,331.509,370.84,332.479z"/>
	</g>
</g>
<g>
	<g>
		<path d="M435.676,73.669c-3.275-3.229-8.548-3.19-11.776,0.087c-3.229,3.276-3.191,8.55,0.086,11.778
			c46.016,45.349,71.358,105.89,71.358,170.466c0,63.931-24.896,124.035-70.102,169.241
			c-45.206,45.206-105.31,70.102-169.241,70.102c-35.385,0-69.471-7.555-101.311-22.455c-4.166-1.95-9.124-0.153-11.074,4.013
			c-1.95,4.166-0.153,9.124,4.013,11.074C181.695,503.917,218.156,512,255.999,512c68.381,0,132.668-26.629,181.019-74.982
			c48.352-48.352,74.98-112.64,74.98-181.019C511.999,186.927,484.893,122.174,435.676,73.669z"/>
	</g>
</g>
<g>
	<g>
		<path d="M409.525,51.131C364.958,17.681,311.87,0,256.002,0c-68.38,0-132.668,26.629-181.019,74.98
			C26.63,123.333,0.001,187.62,0.001,255.999c0,86.842,43.492,167.052,116.339,214.564c1.405,0.916,2.982,1.354,4.542,1.354
			c2.72,0,5.387-1.331,6.984-3.78c2.513-3.852,1.427-9.013-2.427-11.526c-68.115-44.424-108.78-119.419-108.78-200.611
			c0-63.931,24.896-124.035,70.102-169.24c45.206-45.206,105.31-70.102,169.241-70.102c52.234,0,101.864,16.528,143.525,47.796
			c3.679,2.761,8.9,2.017,11.661-1.662C413.948,59.112,413.204,53.892,409.525,51.131z"/>
	</g>
</g>
</svg>