<?xml version="1.0" encoding="iso-8859-1"?>
<!-- Uploaded to: SVG Repo, www.svgrepo.com, Generator: SVG Repo Mixer Tools -->
<svg fill="#000000" height="800px" width="800px" version="1.1" id="Layer_1" xmlns="http://www.w3.org/2000/svg" xmlns:xlink="http://www.w3.org/1999/xlink" 
	 viewBox="0 0 512 512" xml:space="preserve">
<g>
	<g>
		<g>
			<path d="M501.333,66.667H10.667C4.775,66.667,0,71.443,0,77.333v357.333c0,5.89,4.775,10.667,10.667,10.667h490.667
				c5.891,0,10.667-4.777,10.667-10.667V77.333C512,71.443,507.225,66.667,501.333,66.667z M490.667,424H21.333V88h469.333V424z"/>
			<path d="M53.333,402.667h405.333c5.891,0,10.667-4.777,10.667-10.667V120c0-5.89-4.775-10.667-10.667-10.667H53.333
				c-5.891,0-10.667,4.777-10.667,10.667v272C42.667,397.89,47.442,402.667,53.333,402.667z M64,130.667h384v250.667H64V130.667z"/>
			<path d="M303.467,273.6c5.891,0,10.667-4.777,10.667-10.667v-61.245c0-5.89-4.775-10.667-10.667-10.667
				c-5.891,0-10.667,4.776-10.667,10.667v61.245C292.8,268.823,297.576,273.6,303.467,273.6z"/>
			<path d="M303.467,173.822c5.891,0,10.667-4.776,10.667-10.667v-0.489c0-5.89-4.775-10.667-10.667-10.667
				c-5.891,0-10.667,4.777-10.667,10.667v0.489C292.8,169.045,297.576,173.822,303.467,173.822z"/>
			<path d="M346.133,173.333h8v89.6c0,5.89,4.775,10.667,10.667,10.667c5.891,0,10.667-4.777,10.667-10.667v-89.6h8
				c5.891,0,10.667-4.776,10.667-10.667S389.358,152,383.467,152h-37.333c-5.891,0-10.667,4.777-10.667,10.667
				S340.242,173.333,346.133,173.333z"/>
			<path d="M128.533,273.6h37.333c5.891,0,10.667-4.777,10.667-10.667s-4.775-10.667-10.667-10.667H139.2v-28.8h26.667
				c5.891,0,10.667-4.777,10.667-10.667s-4.775-10.667-10.667-10.667H139.2v-28.8h26.667c5.891,0,10.667-4.776,10.667-10.667
				S171.758,152,165.867,152h-37.333c-5.891,0-10.667,4.777-10.667,10.667v100.267C117.867,268.823,122.642,273.6,128.533,273.6z"/>
			<path d="M203.602,272.391c1.575,0.822,3.261,1.211,4.922,1.211c3.849,0,7.566-2.09,9.468-5.739l16.675-31.987l16.674,31.988
				c1.903,3.65,5.619,5.739,9.468,5.739c1.661,0,3.347-0.389,4.922-1.211c5.223-2.723,7.251-9.165,4.528-14.388L246.695,212.8
				l23.564-45.203c2.723-5.223,0.695-11.666-4.528-14.388c-5.223-2.726-11.666-0.697-14.389,4.528l-16.675,31.987l-16.674-31.988
				c-2.724-5.225-9.165-7.251-14.389-4.528c-5.223,2.723-7.251,9.165-4.528,14.388l23.564,45.203l-23.564,45.203
				C196.352,263.227,198.379,269.668,203.602,272.391z"/>
			<path d="M416,316.267H126.201l5.298-4.276c4.585-3.7,5.301-10.416,1.601-15.001c-3.699-4.583-10.415-5.301-14.999-1.602
				l-28.8,23.244c-2.51,2.025-3.968,5.077-3.968,8.301c0,3.224,1.458,6.276,3.968,8.301l28.8,23.244
				c1.973,1.591,4.34,2.366,6.692,2.366c3.114,0,6.199-1.356,8.307-3.968c3.7-4.585,2.982-11.3-1.601-15.001l-5.298-4.276H416
				c5.891,0,10.667-4.777,10.667-10.667S421.891,316.267,416,316.267z"/>
		</g>
	</g>
</g>
</svg>