<?xml version="1.0" encoding="iso-8859-1"?>
<!-- Uploaded to: SVG Repo, www.svgrepo.com, Generator: SVG Repo Mixer Tools -->
<!DOCTYPE svg PUBLIC "-//W3C//DTD SVG 1.1//EN" "http://www.w3.org/Graphics/SVG/1.1/DTD/svg11.dtd">
<svg fill="#000000" version="1.1" id="Capa_1" xmlns="http://www.w3.org/2000/svg" xmlns:xlink="http://www.w3.org/1999/xlink" 
	 width="800px" height="800px" viewBox="0 0 909.061 909.061"
	 xml:space="preserve">
<g>
	<path d="M0,454.53c0,28.996,23.505,52.5,52.5,52.5h538.473l-42.252,41.748c-20.625,20.379-20.824,53.619-0.445,74.244
		c10.27,10.395,23.805,15.602,37.348,15.6c13.328,0,26.666-5.045,36.896-15.154L754,493.556c9.904-9.785,15.518-23.105,15.6-37.029
		c0.084-13.923-5.367-27.311-15.154-37.214L622.762,286.04c-20.379-20.624-53.617-20.826-74.244-0.445
		c-20.625,20.379-20.824,53.619-0.445,74.244l41.689,42.192H52.5C23.505,402.031,0,425.536,0,454.53z"/>
	<path d="M856.561,215.72c-28.996,0-52.5,23.505-52.5,52.5v372.621c0,28.994,23.504,52.5,52.5,52.5c28.994,0,52.5-23.506,52.5-52.5
		V268.22C909.061,239.225,885.555,215.72,856.561,215.72z"/>
</g>
</svg>