<?xml version="1.0" encoding="utf-8"?>
<!-- Uploaded to: SVG Repo, www.svgrepo.com, Generator: SVG Repo Mixer Tools -->
<svg width="800px" height="800px" viewBox="0 0 1024 1024" fill="#000000" class="icon"  version="1.1" xmlns="http://www.w3.org/2000/svg"><path d="M46.40866 692.418c-37.504 0-42.376-11.758-44.578-17.066-3.716-8.992-15.05-36.378 130.392-122.318 3.826-2.232 8.712-0.984 10.946 2.826a7.994 7.994 0 0 1-2.81 10.946C8.37466 644.782 16.21066 668.28 16.60266 669.23c0.406 0.938 11.398 22.968 158.73-14.754 100.084-25.638 229.132-70.386 363.366-126.004 134.264-55.624 257.144-115.238 346.018-167.858 130.876-77.492 123.07-100.834 122.68-101.794-0.39-0.906-10.898-22.032-149.708 12.506-4.308 1.022-8.618-1.546-9.68-5.832s1.544-8.62 5.824-9.688c153.75-38.246 164.742-11.812 168.332-3.106 3.716 8.962 15.022 36.224-129.296 121.67-89.5 52.994-213.114 112.966-348.048 168.872-134.906 55.898-264.72 100.898-365.524 126.722-66.092 16.926-107.172 22.454-132.888 22.454zM616.40666 655.896c-4.402 0-8.07-3.574-8.07-7.994 0-4.418 3.496-7.994 7.914-7.994h0.156a7.99 7.99 0 0 1 7.996 7.994 7.99 7.99 0 0 1-7.996 7.994zM360.59066 352.114c-4.402 0-8.072-3.576-8.072-7.996 0-4.418 3.498-7.994 7.916-7.994h0.156a7.99 7.99 0 0 1 7.994 7.994 7.99 7.99 0 0 1-7.994 7.996z" fill="" /><path d="M728.32866 400.08c-4.404 0-8.074-3.576-8.074-7.994 0-4.418 3.498-7.994 7.918-7.994h0.156a7.99 7.99 0 0 1 7.994 7.994 7.99 7.99 0 0 1-7.994 7.994z" fill="" /><path d="M695.88266 783.804H328.14466a7.988 7.988 0 0 1-7.994-7.992v-17.316c-100.21-65.36-159.886-175.11-159.886-294.462 0-193.956 157.794-351.75 351.75-351.75s351.748 157.792 351.748 351.75c0 119.352-59.692 229.102-159.886 294.462v17.316a7.988 7.988 0 0 1-7.994 7.992z m-359.744-15.988h351.748v-13.676c0-2.734 1.39-5.278 3.702-6.746 97.79-62.114 156.186-168.052 156.186-283.36 0-185.142-150.626-335.76-335.76-335.76-185.15 0-335.76 150.62-335.76 335.76 0 115.308 58.38 221.248 156.168 283.36a7.996 7.996 0 0 1 3.716 6.746v13.676z" fill="" /><path d="M647.91666 991.658H376.09466a7.992 7.992 0 0 1-5.652-2.342l-47.95-47.966a7.984 7.984 0 0 1-2.342-5.652v-159.884a7.99 7.99 0 0 1 7.994-7.996h367.738a7.988 7.988 0 0 1 7.992 7.996v159.884a7.988 7.988 0 0 1-2.34 5.652l-47.966 47.966a7.99 7.99 0 0 1-5.652 2.342z m-268.512-15.99h265.202l43.282-43.282v-148.582H336.13866v148.582l43.266 43.282z" fill="" /><path d="M312.14066 847.76a8 8 0 0 1-7.962-7.354 7.996 7.996 0 0 1 7.338-8.604l399.714-31.976c4.496-0.296 8.244 2.936 8.604 7.322a7.986 7.986 0 0 1-7.322 8.604l-399.716 31.976a8.946 8.946 0 0 1-0.656 0.032zM312.14066 895.726a8 8 0 0 1-7.962-7.356 7.994 7.994 0 0 1 7.338-8.602l399.714-31.978c4.496-0.36 8.244 2.92 8.604 7.322a7.986 7.986 0 0 1-7.322 8.606l-399.716 31.976c-0.218 0.016-0.436 0.032-0.656 0.032zM312.14066 943.692a8 8 0 0 1-7.962-7.354 7.994 7.994 0 0 1 7.338-8.604l399.714-31.976c4.496-0.25 8.244 2.92 8.604 7.322a7.984 7.984 0 0 1-7.322 8.604L312.79666 943.66a8.946 8.946 0 0 1-0.656 0.032zM512.01466 1023.634c-67.188 0-93.262-33.742-94.34-35.178a7.986 7.986 0 0 1 1.608-11.196 7.992 7.992 0 0 1 11.148 1.56c0.968 1.25 23.014 28.824 81.584 28.824 58.628 0 80.66-27.652 81.566-28.824 2.686-3.482 7.712-4.152 11.196-1.498a7.958 7.958 0 0 1 1.56 11.132c-1.078 1.438-27.152 35.18-94.322 35.18zM512.01466 128.274a7.99 7.99 0 0 1-7.996-7.994V8.36a7.99 7.99 0 0 1 7.996-7.994 7.99 7.99 0 0 1 7.994 7.994v111.92a7.99 7.99 0 0 1-7.994 7.994z" fill="" /><path d="M583.96066 32.342h-71.948a7.99 7.99 0 0 1-7.996-7.994 7.99 7.99 0 0 1 7.996-7.994h71.948a7.99 7.99 0 0 1 7.996 7.994 7.99 7.99 0 0 1-7.996 7.994zM583.96066 64.32h-71.948c-4.42 0-7.996-3.576-7.996-7.994s3.576-7.994 7.996-7.994h71.948c4.42 0 7.996 3.576 7.996 7.994s-3.576 7.994-7.996 7.994z" fill="" /><path d="M583.96066 64.32a7.99 7.99 0 0 1-7.994-7.994V24.348a7.99 7.99 0 0 1 7.994-7.994 7.99 7.99 0 0 1 7.996 7.994v31.978a7.99 7.99 0 0 1-7.996 7.994z" fill="" /><path d="M551.98466 96.296a7.978 7.978 0 0 1-5.652-2.342 7.988 7.988 0 0 1 0-11.304l31.976-31.978a7.992 7.992 0 1 1 11.304 11.304l-31.976 31.978a7.966 7.966 0 0 1-5.652 2.342z" fill="" /><path d="M663.90466 96.296h-111.92a7.99 7.99 0 0 1-7.994-7.994 7.99 7.99 0 0 1 7.994-7.994h111.92a7.988 7.988 0 0 1 7.994 7.994 7.988 7.988 0 0 1-7.994 7.994zM663.90466 64.32H583.96066c-4.418 0-7.994-3.576-7.994-7.994s3.576-7.994 7.994-7.994h79.944c4.42 0 7.994 3.576 7.994 7.994s-3.574 7.994-7.994 7.994z" fill="" /><path d="M663.90466 96.296a7.978 7.978 0 0 1-5.652-2.342l-15.988-15.99a7.988 7.988 0 0 1 0-11.304l15.988-15.99a7.992 7.992 0 1 1 11.304 11.304l-10.336 10.336 10.336 10.336a7.988 7.988 0 0 1 0 11.304 7.95 7.95 0 0 1-5.652 2.346zM232.21266 472.028a7.99 7.99 0 0 1-7.994-7.994c0-158.692 129.096-287.794 287.794-287.794a7.988 7.988 0 0 1 7.994 7.994 7.99 7.99 0 0 1-7.994 7.994c-149.878 0-271.806 121.928-271.806 271.806a7.988 7.988 0 0 1-7.994 7.994z" fill="" /><path d="M512.01466 448.044c-44.078 0-79.944-32.274-79.944-71.948s35.866-71.948 79.944-71.948c44.076 0 79.944 32.274 79.944 71.948s-35.868 71.948-79.944 71.948z m0-127.908c-35.272 0-63.956 25.108-63.956 55.96s28.682 55.96 63.956 55.96c35.256 0 63.954-25.108 63.954-55.96s-28.698-55.96-63.954-55.96z" fill="" /><path d="M696.63066 301.962c-13.678 0-31.21-9.042-45.748-23.594-22.734-22.716-30.182-49.582-17.3-62.478 12.492-12.498 40.752-4.52 62.52 17.262 22.716 22.718 30.132 49.582 17.252 62.478-4.14 4.146-9.914 6.332-16.724 6.332z m-46.326-76.406c-1.716 0-4.058 0.28-5.418 1.638-4.48 4.498 0.11 22.704 17.3 39.87 13.052 13.062 26.7 18.908 34.444 18.908 1.716 0 4.06-0.28 5.418-1.64 4.498-4.504-0.094-22.71-17.252-39.876-13.07-13.052-26.732-18.9-34.492-18.9z" fill="" /><path d="M712.52866 624.28c-6.84 0-13.024-2.42-17.426-6.822-11.008-11.008-8.556-30.728 5.574-44.89 13.522-13.538 34.302-16.192 44.888-5.606 11.008 11.008 8.556 30.742-5.542 44.906-7.932 7.898-17.94 12.412-27.494 12.412z m15.644-48.156c-5.292 0-11.336 2.906-16.176 7.746-8.214 8.212-9.542 18.33-5.59 22.282 1.764 1.764 4.292 2.138 6.122 2.138 5.278 0 11.318-2.888 16.176-7.728 8.18-8.214 9.508-18.348 5.558-22.296-1.766-1.766-4.28-2.142-6.09-2.142z" fill="" /><path d="M320.15066 543.992c-17.644 0-31.978-14.348-31.978-31.992 0-17.636 14.334-31.976 31.978-31.976 17.626 0 31.976 14.34 31.976 31.976 0 17.644-14.348 31.992-31.976 31.992z m0-47.98c-8.822 0-15.988 7.174-15.988 15.988 0 8.822 7.166 16.004 15.988 16.004 8.806 0 15.988-7.182 15.988-16.004 0-8.814-7.182-15.988-15.988-15.988z" fill="" /><path d="M464.04666 703.878c-17.94 0-31.976-10.54-31.976-24 0-13.442 14.038-23.982 31.976-23.982 17.926 0 31.978 10.542 31.978 23.982 0 13.462-14.052 24-31.978 24z m0-31.992c-9.618 0-15.988 4.808-15.988 7.992 0 3.266 6.23 8.012 15.988 8.012 9.76 0 15.99-4.746 15.99-8.012 0-3.182-6.386-7.992-15.99-7.992z" fill="" /></svg>