<?xml version="1.0" encoding="iso-8859-1"?>
<!-- Uploaded to: SVG Repo, www.svgrepo.com, Generator: SVG Repo Mixer Tools -->
<svg version="1.1" id="Layer_1" xmlns="http://www.w3.org/2000/svg" xmlns:xlink="http://www.w3.org/1999/xlink" 
	 viewBox="0 0 490.21 490.21" xml:space="preserve">
<g id="XMLID_429_">
	<g id="XMLID_1133_">
		<circle style="fill:#3AAA35;" cx="245.104" cy="229.786" r="176.169"/>
	</g>
	<g id="XMLID_1137_">
		<path style="fill:#89CC86;" d="M245.104,53.617c97.295,0,176.169,78.873,176.169,176.169c0,97.295-78.873,176.169-176.169,176.169
			"/>
	</g>
	<g id="XMLID_1136_">
		<path style="fill:#5EBAE7;" d="M421.273,275.743c0-97.295-78.873-176.169-176.169-176.169S68.936,178.447,68.936,275.743v122.552
			h352.338"/>
	</g>
	<g id="XMLID_1153_">
		<circle style="fill:#9ED6F1;" cx="214.466" cy="237.445" r="122.552"/>
	</g>
	<g id="XMLID_1119_">
		<rect x="421.273" y="199.148" style="fill:#89CC86;" width="38.298" height="99.574"/>
	</g>
	<g id="XMLID_1135_">
		<rect x="30.638" y="199.148" style="fill:#3AAA35;" width="38.298" height="99.574"/>
	</g>
	<g id="XMLID_1075_">
		<rect x="68.936" y="405.954" style="fill:#3AAA35;" width="352.338" height="68.936"/>
	</g>
	<g id="XMLID_1105_">
		<rect x="245.104" y="405.954" style="fill:#89CC86;" width="176.169" height="68.936"/>
	</g>
	<g id="XMLID_1067_">
		<rect x="91.914" y="436.593" style="fill:#1D1D1B;" width="15.319" height="15.318"/>
	</g>
	<g id="XMLID_1068_">
		<rect x="122.552" y="436.593" style="fill:#FFFFFF;" width="15.319" height="15.318"/>
	</g>
	<g id="XMLID_1069_">
		<rect x="153.19" y="436.593" style="fill:#1D1D1B;" width="15.319" height="15.318"/>
	</g>
	<g id="XMLID_1070_">
		<rect x="183.828" y="436.593" style="fill:#FFFFFF;" width="15.319" height="15.318"/>
	</g>
	<g id="XMLID_1071_">
		<rect x="214.466" y="436.593" style="fill:#1D1D1B;" width="183.828" height="15.318"/>
	</g>
	<path style="fill:#1D1D1B;" d="M467.23,191.488h-42.322c-17.669-83.042-91.571-145.53-179.804-145.53S82.969,108.446,65.3,191.488
		H53.617V22.979h-15.32v168.51H22.979v114.893h38.297V490.21h367.657V306.381h38.298V191.488H467.23z M413.613,398.295H76.595
		V275.743c0-92.916,75.593-168.51,168.509-168.51s168.509,75.594,168.509,168.51V398.295z M245.104,61.276
		c80.704,0,148.328,57.034,164.712,132.909c-30.106-60.554-92.624-102.27-164.712-102.27S110.498,133.632,80.392,194.186
		C96.776,118.31,164.4,61.276,245.104,61.276z M61.276,291.063H38.298v-84.256H62.71c-0.943,7.53-1.434,15.198-1.434,22.98V291.063z
		 M76.595,474.891v-61.277h337.018v61.277H76.595z M451.911,291.063h-22.978v-61.276c0-7.781-0.491-15.45-1.434-22.98h24.412
		V291.063z"/>
	<g id="XMLID_1074_">
		<rect x="38.082" style="fill:#1D1D1B;" width="15.319" height="15.319"/>
	</g>
	<g id="XMLID_1048_">
		<path style="fill:#FFFFFF;" d="M114.893,275.743h-15.32c0-80.246,65.285-145.531,145.531-145.531v15.318
			C173.305,145.53,114.893,203.943,114.893,275.743z"/>
	</g>
	<g id="XMLID_1076_">
		<rect x="99.573" y="291.061" style="fill:#FFFFFF;" width="15.319" height="15.319"/>
	</g>
</g>
</svg>