<?xml version="1.0" encoding="iso-8859-1"?>
<!-- Uploaded to: SVG Repo, www.svgrepo.com, Generator: SVG Repo Mixer Tools -->
<svg version="1.1" id="Layer_1" xmlns="http://www.w3.org/2000/svg" xmlns:xlink="http://www.w3.org/1999/xlink" 
	 viewBox="0 0 496.2 496.2" xml:space="preserve">
<path style="fill:#334D5C;" d="M248.1,0C111.1,0,0,111.1,0,248.1s111.1,248.1,248.1,248.1s248.1-111.1,248.1-248.1S385.1,0,248.1,0z
	"/>
<path style="fill:#F2EEEB;" d="M375.9,103H120.3c-30.8,0-55.7,24.9-55.7,55.7v256.4c45.4,49.8,110.8,81.1,183.5,81.1
	s138.1-31.3,183.5-81.1V158.7C431.6,127.9,406.6,103,375.9,103z"/>
<path style="fill:#FFFFFF;" d="M247.7,333.4c-75,0-177.6,15.5-215.8,36.5c42.6,75.4,123.5,126.3,216.2,126.3S421.7,445.3,464.2,370
	C425.9,348.9,322.8,333.4,247.7,333.4z"/>
<g>
	<path style="fill:#D9DADB;" d="M197.2,412.2c-2.2,0-3.9,1.8-3.9,3.9v74c2.6,0.6,5.2,1.1,7.9,1.6v-75.6
		C201.1,413.9,199.4,412.2,197.2,412.2z"/>
	<path style="fill:#D9DADB;" d="M217.6,412.2c-2.2,0-3.9,1.8-3.9,3.9v77.7c2.6,0.4,5.2,0.7,7.9,1v-78.7
		C221.5,413.9,219.7,412.2,217.6,412.2z"/>
	<path style="fill:#D9DADB;" d="M237.9,412.2c-2.2,0-3.9,1.8-3.9,3.9v79.7c2.6,0.1,5.2,0.3,7.9,0.3v-80
		C241.9,413.9,240.1,412.2,237.9,412.2z"/>
	<path style="fill:#D9DADB;" d="M258.3,412.2c-2.2,0-3.9,1.8-3.9,3.9v80c2.6-0.1,5.3-0.2,7.9-0.3v-79.7
		C262.2,413.9,260.5,412.2,258.3,412.2z"/>
	<path style="fill:#D9DADB;" d="M278.6,412.2c-2.2,0-3.9,1.8-3.9,3.9v78.7c2.6-0.3,5.3-0.6,7.9-1v-77.7
		C282.6,413.9,280.8,412.2,278.6,412.2z"/>
	<path style="fill:#D9DADB;" d="M299,412.2c-2.2,0-3.9,1.8-3.9,3.9v75.6c2.6-0.5,5.3-1.1,7.9-1.6v-74
		C302.9,413.9,301.2,412.2,299,412.2z"/>
</g>
<circle style="fill:#BFC0C1;" cx="342.4" cy="440.4" r="27"/>
<circle style="fill:#FFFFFF;" cx="342.4" cy="440.4" r="22.8"/>
<path style="fill:#AF1010;" d="M342.4,427.9c-0.7,0-1.4,0.6-1.4,1.4v11.2c0,0.7,0.6,1.4,1.4,1.4s1.4-0.6,1.4-1.4v-11.2
	C343.7,428.5,343.1,427.9,342.4,427.9z"/>
<path style="fill:#3366A3;" d="M352.6,449.4l-9.6-9.6c-0.4-0.4-0.9-0.4-1.3,0s-0.4,0.9,0,1.3l9.6,9.6c0.2,0.2,0.4,0.3,0.6,0.3
	s0.5-0.1,0.6-0.3C353,450.3,353,449.7,352.6,449.4z"/>
<path style="fill:#30A018;" d="M342.7,440.1c-0.2-0.2-0.5-0.2-0.6,0L328,452.7c-0.2,0.2-0.2,0.5,0,0.6c0.1,0.1,0.2,0.2,0.3,0.2
	c0.1,0,0.2,0,0.3-0.1l14.1-12.6C342.9,440.6,342.9,440.3,342.7,440.1z"/>
<path style="fill:#9F9FA0;" d="M342.4,436.6c-2.1,0-3.8,1.7-3.8,3.8s1.7,3.8,3.8,3.8c2.1,0,3.8-1.7,3.8-3.8S344.5,436.6,342.4,436.6
	z"/>
<path style="fill:#C9B81F;" d="M132.8,342.7c-6.4,1-12.7,2-18.8,3.2c0.8,2.3,1.2,4.7,1.2,7.2c0,12.5-10.1,22.7-22.7,22.7
	c-11.6,0-21.2-8.8-22.5-20.1c-6.4,1.8-12.5,3.6-17.9,5.6l6.4,29.5l81-17.5L132.8,342.7z"/>
<path style="fill:#3366A3;" d="M108.6,346.9c-11.9,2.3-23.1,4.7-33.4,7.4c0.6,9,8.1,16.1,17.3,16.1c9.6,0,17.3-7.8,17.3-17.3
	C109.8,350.9,109.3,348.8,108.6,346.9z"/>
<path style="fill:#FFFFFF;" d="M113.9,345.9c-1.8,0.3-3.6,0.7-5.3,1c0.8,1.9,1.2,4,1.2,6.2c0,9.6-7.8,17.3-17.3,17.3
	c-9.2,0-16.7-7.1-17.3-16.1c-1.8,0.5-3.5,0.9-5.2,1.4c1.3,11.3,10.9,20.1,22.5,20.1c12.5,0,22.7-10.1,22.7-22.7
	C115.1,350.6,114.7,348.1,113.9,345.9z"/>
<path style="fill:#3366A3;" d="M363.4,342.8l-6.6,30.5l81,17.5l6.4-29.5C423.1,353.9,394.5,347.6,363.4,342.8z"/>
<path style="fill:#AF1010;" d="M363.4,342.8l-3.1,14.6l81,17.5l2.9-13.5C423.1,353.9,394.5,347.6,363.4,342.8z"/>
<rect x="391.49" y="355.044" transform="matrix(-0.2064 0.9785 -0.9785 -0.2064 841.4594 49.907)" style="fill:#FFFFFF;" width="18.001" height="22.301"/>
<polygon style="fill:#C9B81F;" points="403.3,364.5 402,359.5 398.8,363.6 393.6,363.3 396.6,367.6 394.7,372.5 399.7,371 
	403.7,374.3 403.9,369.1 408.2,366.2 "/>
<path style="fill:#DBDBDB;" d="M248.1,300.2c-55.4,0-100.4,9-100.4,20.1c0,1.3,0,21.7,0,23c0,11.1,44.9,20.1,100.4,20.1
	c55.4,0,100.3-9,100.3-20.1c0-1.3,0-21.7,0-23C348.4,309.2,303.5,300.2,248.1,300.2z"/>
<path style="fill:#FFFFFF;" d="M248.1,300.2c-55.4,0-100.4,9-100.4,20.1s44.9,20.1,100.4,20.1c55.4,0,100.3-9,100.3-20.1
	S303.5,300.2,248.1,300.2z"/>
<path style="fill:#2A3F49;" d="M248.1,303.8c-46.9,0-85,7.4-85,16.5s38.1,16.5,85,16.5s85-7.4,85-16.5S295,303.8,248.1,303.8z"/>
<g>
	<path style="fill:#E2A379;" d="M209.2,282.1c2.9,8.8,4.5,16.5,5.2,23.1c10.3-0.9,21.7-1.4,33.7-1.4s23.4,0.5,33.7,1.4
		c0.7-6.6,2.3-14.2,5.2-23.1H209.2z"/>
	<path style="fill:#E2A379;" d="M281.8,305.2c-10.3-0.9-21.7-1.4-33.7-1.4s-23.4,0.5-33.7,1.4c2,18.5-3,28.2-4,29.9
		c11.4,1.1,24.2,1.7,37.7,1.7c13.6,0,26.4-0.6,37.7-1.7C284.8,333.4,279.8,323.7,281.8,305.2z"/>
</g>
<path style="fill:#F4B382;" d="M248.1,61.6c-48.7,0-88.3,21.2-88.3,113.6c0,31.3,6.2,55.8,15.5,74.7c20.4,41.6,55.7,56.1,72.8,56.1
	s52.4-14.5,72.8-56.1c9.3-18.9,15.5-43.4,15.5-74.7C336.4,82.8,296.8,61.6,248.1,61.6z"/>
<path style="fill:#E5A173;" d="M259.5,254.8c-3.3-0.5-11.4,2.7-11.4,2.7s-8.3-3.1-11.6-2.7c-5.3,0.8-13.1,4.9-13.1,6.4
	c0,2.4,11,8.8,24.7,8.8s24.7-6.5,24.7-8.8C272.8,261.2,264.9,255.5,259.5,254.8z"/>
<path style="fill:#D89364;" d="M248.1,262.4c-14.6,0-24.7-1.2-24.7-1.2c0,2.4,11,11.5,24.7,11.5c13.7,0,24.7-9.1,24.7-11.5
	C272.8,261.2,262.7,262.4,248.1,262.4z"/>
<g>
	<path style="fill:#F4B382;" d="M161.4,178c-8.4,1.4-14.9,5.1-10.1,32.9s10.7,29.1,19.1,27.7L161.4,178z"/>
	<path style="fill:#F4B382;" d="M334.9,178l-9,60.6c8.4,1.4,14.3,0.1,19.1-27.7C349.7,183.1,343.3,179.5,334.9,178z"/>
</g>
<g>
	<path style="fill:#3A1D12;" d="M248.1,59.1c-58,0-88.3,23.7-88.3,116.1l38.8-68.4h95.7l42.1,68.4C336.4,82.8,306.1,59.1,248.1,59.1
		z"/>
	<path style="fill:#3A1D12;" d="M180.1,138.6l-14.6,2.2c-4.2,10.9-5.6,24.4-5.6,37.5c0,0,8.8-1.9,8.8,2.6l2.8,27.6l3.9-1.9
		C175,183.6,180.1,138.6,180.1,138.6z"/>
	<path style="fill:#3A1D12;" d="M330.8,140.8l-14.6-0.4c0,0,5.1,43.2,4.9,66.2l3.9,1.9l2.7-27.6c0-4.5,8.8-2.6,8.8-2.6
		C336.5,165.1,335.1,151.7,330.8,140.8z"/>
</g>
<path style="fill:#2A3F49;" d="M311.5,337.4L311.5,337.4L311.5,337.4L311.5,337.4z"/>
</svg>