<?xml version="1.0" encoding="iso-8859-1"?>
<!-- Uploaded to: SVG Repo, www.svgrepo.com, Generator: SVG Repo Mixer Tools -->
<svg height="800px" width="800px" version="1.1" id="Layer_1" xmlns="http://www.w3.org/2000/svg" xmlns:xlink="http://www.w3.org/1999/xlink" 
	 viewBox="0 0 504.32 504.32" xml:space="preserve">
<g transform="translate(1 1)">
	<path style="fill:#FFD0A1;" d="M361.667,276.76c0,9.387-0.853,39.253-7.68,58.88l0.853,2.56
		c-27.307,11.947-63.147,23.04-103.253,23.04c-40.107,0-75.947-11.093-103.253-23.04l0.853-1.707
		c-8.533-21.333-8.533-51.2-8.533-60.587c0-23.893,2.56-46.933,6.827-69.12c7.68-37.547,22.187-71.68,43.52-93.013
		c16.213-16.213,35.84-25.6,60.587-25.6s44.373,9.387,60.587,25.6c22.187,22.187,36.693,56.32,44.373,94.72
		C359.96,230.68,361.667,253.72,361.667,276.76"/>
	<path style="fill:#ECF4F7;" d="M353.987,335.64c7.68-20.48,7.68-49.493,7.68-58.88c0-23.04-1.707-46.08-5.973-67.413l0,0
		c17.92,11.947,34.987,7.68,34.987,7.68c8.533,0,13.653-15.36,13.653-34.133c0-9.387-11.947-40.107-17.067-51.2
		C370.2,97.56,344.6,89.027,327.533,89.027c-17.067,0-16.213,25.6-16.213,25.6l0,0c-16.213-16.213-35.84-25.6-60.587-25.6
		c-24.747,0-44.373,9.387-60.587,25.6l0,0c0,0,0.853-25.6-16.213-25.6c-17.067,0-42.667,8.533-59.733,42.667
		c-5.12,11.093-17.067,41.813-17.067,51.2c0,18.773,5.12,34.133,13.653,34.133c0,0,14.507,6.827,34.133-9.387h0.853
		c-4.267,22.187-6.827,45.227-6.827,69.12c0,9.387,0,39.253,8.533,60.587l-0.853,1.707c-30.72-13.653-50.347-28.16-50.347-28.16
		s-29.013-22.187-57.173-58.88c-1.707-11.093-2.56-23.04-2.56-34.987c0-117.76,95.573-213.333,213.333-213.333
		c117.76,0,213.333,95.573,213.333,213.333c0,11.947-0.853,23.893-2.56,34.987H459.8c-22.187,36.693-56.32,58.88-56.32,58.88
		s-19.627,14.507-50.347,28.16L353.987,335.64z M250.733,481.56v17.067H3.267c0-42.667,51.2-68.267,51.2-68.267
		s15.36-4.267,34.133-4.267C132.973,461.08,189.293,481.56,250.733,481.56z M498.2,498.627H250.733V481.56
		c61.44,0,117.76-20.48,162.133-55.467l0,0c24.747,0,34.133,4.267,34.133,4.267S498.2,455.96,498.2,498.627z"/>
	<path style="fill:#FFE079;" d="M284.867,191.427c5.12,0,8.533,4.267,8.533,8.533s-3.413,8.533-8.533,8.533
		c-5.12,0-8.533-4.267-8.533-8.533S279.747,191.427,284.867,191.427z M216.6,191.427c5.12,0,8.533,4.267,8.533,8.533
		s-3.413,8.533-8.533,8.533c-5.12,0-8.533-4.267-8.533-8.533S211.48,191.427,216.6,191.427z"/>
	<path style="fill:#FFD0A1;" d="M190.147,114.627L190.147,114.627c-22.187,21.333-35.84,55.467-43.52,93.013h-0.853
		c-19.627,16.213-34.133,9.387-34.133,9.387c-8.533,0-13.653-15.36-13.653-34.133c0-9.387,11.947-40.107,17.067-51.2
		c17.067-34.133,42.667-42.667,59.733-42.667S190.147,114.627,190.147,114.627z M404.333,182.893
		c0,18.773-5.12,34.133-13.653,34.133c0,0-17.067,4.267-34.987-7.68l0,0c-7.68-38.4-22.187-72.533-44.373-94.72l0,0
		c0,0-0.853-25.6,16.213-25.6c17.067,0,42.667,8.533,59.733,42.667C392.387,142.787,404.333,173.507,404.333,182.893z"/>
	<g>
		<path style="fill:#AAB1BA;" d="M412.867,355.267v70.827C367.64,461.08,312.173,481.56,250.733,481.56S132.973,461.08,88.6,426.093
			V356.12c39.253,46.08,97.28,75.093,162.133,75.093S373.613,401.347,412.867,355.267"/>
		<path style="fill:#AAB1BA;" d="M461.507,252.013c-6.827,39.253-23.893,75.093-48.64,103.253
			c-39.253,46.08-97.28,75.093-162.133,75.093S127.853,401.347,88.6,355.267c-24.747-29.013-41.813-64.853-48.64-104.107
			c28.16,37.547,57.173,58.88,57.173,58.88s19.627,14.507,50.347,28.16c27.307,11.947,63.147,23.04,103.253,23.04
			c40.107,0,75.947-11.093,103.253-23.04c30.72-13.653,50.347-28.16,50.347-28.16S438.467,288.707,461.507,252.013L461.507,252.013z
			"/>
	</g>
	<path style="fill:#AE938D;" d="M250.733,259.693c14.507,0,25.6,7.68,25.6,17.067s-11.093,17.067-25.6,17.067
		c-14.507,0-25.6-7.68-25.6-17.067S236.227,259.693,250.733,259.693"/>
	<path style="fill:#80D6FA;" d="M54.467,20.76c0,9.387-7.68,17.067-17.067,17.067s-17.067-7.68-17.067-17.067
		S28.013,3.693,37.4,3.693S54.467,11.373,54.467,20.76"/>
</g>
<path style="fill:#51565F;" d="M499.2,503.893c-2.56,0-4.267-1.707-4.267-4.267c0-39.253-48.64-64-48.64-64.853
	c-1.707-0.853-2.56-3.413-1.707-5.973c0.853-1.707,3.413-2.56,5.973-1.707c2.56,0.853,53.76,27.307,53.76,71.68
	C503.467,502.187,501.76,503.893,499.2,503.893z M4.267,503.893c-2.56,0-4.267-1.707-4.267-4.267c0-44.373,51.2-70.827,53.76-71.68
	c1.707-0.853,4.267,0,5.973,1.707c0.853,1.707,0,4.267-1.707,5.973c-0.853,0-48.64,24.747-48.64,64.853
	C8.533,502.187,6.827,503.893,4.267,503.893z M251.733,486.827c-60.587,0-116.907-19.627-164.693-56.32
	c-0.853-0.853-1.707-1.707-1.707-3.413v-69.12c-31.573-37.547-51.2-87.04-51.2-139.947V42.24C24.747,40.533,17.067,32,17.067,21.76
	c0-11.947,9.387-21.333,21.333-21.333S59.733,9.813,59.733,21.76c0,10.24-7.68,18.773-17.067,20.48v115.2
	C69.12,66.987,152.747,0.427,251.733,0.427c120.32,0,217.6,97.28,217.6,217.6c0,52.907-19.627,102.4-51.2,139.947v69.12
	c0,1.707-0.853,2.56-1.707,3.413C368.64,467.2,312.32,486.827,251.733,486.827z M93.867,424.533
	c46.08,34.987,99.84,53.76,157.867,53.76S363.52,459.52,409.6,424.533V367.36c-40.107,41.813-95.573,68.267-157.867,68.267
	s-117.76-26.453-157.867-68.267V424.533z M251.733,8.96c-115.2,0-209.067,93.867-209.067,209.067s93.867,209.067,209.067,209.067
	c63.147,0,119.467-28.16,157.867-72.533c0-0.853,0.853-2.56,2.56-2.56c30.72-36.693,48.64-82.773,48.64-133.973
	C460.8,102.827,366.933,8.96,251.733,8.96z M38.4,8.96c-6.827,0-12.8,5.973-12.8,12.8s5.973,12.8,12.8,12.8s12.8-5.973,12.8-12.8
	S45.227,8.96,38.4,8.96z M251.733,367.36c-86.187,0-153.6-50.347-156.16-52.053c-1.707-1.707-2.56-4.267-0.853-5.973
	c1.707-1.707,4.267-2.56,5.973-0.853c0.853,0.853,68.267,50.347,151.04,50.347s150.187-49.493,151.04-50.347
	c1.707-1.707,4.267-0.853,5.973,0.853c1.707,1.707,0.853,4.267-0.853,5.973C405.333,317.013,337.92,367.36,251.733,367.36z
	 M285.867,324.693c-13.653,0-27.307-5.12-34.133-15.36c-6.827,10.24-20.48,15.36-34.133,15.36c-2.56,0-4.267-1.707-4.267-4.267
	c0-2.56,1.707-4.267,4.267-4.267c12.8,0,27.307-5.12,29.867-17.067c-14.507-1.707-25.6-10.24-25.6-21.333
	c0-11.947,12.8-21.333,29.867-21.333s29.867,9.387,29.867,21.333c0,11.093-11.093,19.627-25.6,21.333
	c2.56,11.947,16.213,17.067,29.867,17.067c2.56,0,4.267,1.707,4.267,4.267C290.133,322.987,288.427,324.693,285.867,324.693z
	 M251.733,264.96c-11.947,0-21.333,5.973-21.333,12.8s9.387,12.8,21.333,12.8c11.947,0,21.333-5.973,21.333-12.8
	S263.68,264.96,251.733,264.96z M360.96,308.48L360.96,308.48c-2.56,0-4.267-2.56-4.267-5.12c0.853-7.68,1.707-16.213,1.707-25.6
	c0-91.307-33.28-183.467-106.667-183.467s-106.667,92.16-106.667,183.467c0,8.533,0.853,17.067,1.707,24.747
	c0,2.56-1.707,4.267-3.413,5.12c-2.56,0-4.267-1.707-5.12-3.413c-0.853-7.68-1.707-17.067-1.707-26.453
	c0-64,16.213-128,50.347-163.84c0-4.267-0.853-12.8-5.12-17.067c-1.707-1.707-4.267-2.56-6.827-2.56
	c-11.093,0-37.547,4.267-56.32,40.107c-5.12,10.24-16.213,40.96-16.213,49.493c0,19.627,5.973,29.867,9.387,29.867
	c2.56,0,4.267,1.707,4.267,4.267s-1.707,4.267-4.267,4.267c-11.093,0-17.92-15.36-17.92-38.4c0-11.093,12.8-42.667,17.92-52.907
	c20.48-40.96,51.2-45.227,63.147-45.227c5.12,0,9.387,1.707,12.8,5.12c4.267,4.267,5.973,10.24,6.827,15.36
	c15.36-12.8,34.987-21.333,57.173-21.333c22.187,0,41.813,7.68,57.173,21.333c0.853-5.12,2.56-11.093,6.827-15.36
	c3.413-3.413,7.68-5.12,12.8-5.12c11.947,0,43.52,4.267,63.147,45.227c5.12,10.24,17.92,41.813,17.92,52.907
	c0,23.04-6.827,38.4-17.92,38.4c-2.56,0-4.267-1.707-4.267-4.267s1.707-4.267,4.267-4.267c4.267,0,9.387-10.24,9.387-29.867
	c0-8.533-11.093-38.4-16.213-49.493c-17.92-36.693-45.227-40.107-56.32-40.107c-2.56,0-5.12,0.853-6.827,2.56
	c-4.267,4.267-5.12,12.8-5.12,17.067c34.133,35.84,50.347,99.84,50.347,163.84c0,10.24-0.853,18.773-1.707,27.307
	C365.227,306.773,363.52,308.48,360.96,308.48z M285.867,213.76c-6.827,0-12.8-5.973-12.8-12.8s5.973-12.8,12.8-12.8
	c6.827,0,12.8,5.973,12.8,12.8S292.693,213.76,285.867,213.76z M285.867,196.693c-2.56,0-4.267,1.707-4.267,4.267
	s1.707,4.267,4.267,4.267s4.267-1.707,4.267-4.267S288.427,196.693,285.867,196.693z M217.6,213.76c-6.827,0-12.8-5.973-12.8-12.8
	s5.973-12.8,12.8-12.8c6.827,0,12.8,5.973,12.8,12.8S224.427,213.76,217.6,213.76z M217.6,196.693c-2.56,0-4.267,1.707-4.267,4.267
	s1.707,4.267,4.267,4.267s4.267-1.707,4.267-4.267S220.16,196.693,217.6,196.693z"/>
</svg>