<?xml version="1.0" encoding="iso-8859-1"?>
<!-- Uploaded to: SVG Repo, www.svgrepo.com, Generator: SVG Repo Mixer Tools -->
<svg version="1.1" id="Layer_1" xmlns="http://www.w3.org/2000/svg" xmlns:xlink="http://www.w3.org/1999/xlink" 
	 viewBox="0 0 508 508" xml:space="preserve">
<circle style="fill:#90DFAA;" cx="254" cy="254" r="254"/>
<path style="fill:#E6E9EE;" d="M408,386.8H100c-15.2,0-27.2-12-27.2-27.2V228.8c0-15.2,12-27.2,27.2-27.2h308.4
	c15.2,0,27.2,12,27.2,27.2v130.8C435.2,374.8,423.2,386.8,408,386.8z"/>
<path style="fill:#324A5E;" d="M179.6,283.6l4,20l70.4,15.6l70.4-15.2l4-20C328.4,283.6,252.8,251.6,179.6,283.6z"/>
<path style="fill:#E6E9EE;" d="M301.2,222.8H254l0,0h-47.2c0,0-22.4,124.8-62.8,140.8c0,0,86.8,0,109.6,0h0.4
	c22.8,0,109.6,0,109.6,0C323.6,347.6,301.2,222.8,301.2,222.8z"/>
<path style="fill:#F1543F;" d="M240.8,332.8c5.2,0,10,0,12,0C248,332.8,244,332.8,240.8,332.8z"/>
<path style="fill:#4CDBC4;" d="M333.2,308c-10.4,14.4-41.6,25.2-78.4,25.2c-0.4,0-0.4,0-0.8,0s-0.4,0-0.8,0
	c-36.8,0-68-10.4-78.4-25.2c0,0-124-4.4-124,99.2C97.2,468.4,170.8,508,253.6,508c0.4,0,0.4,0,0.8,0s0.4,0,0.8,0
	c82.8,0,156.4-39.6,202.8-100.8C457.2,303.2,333.2,308,333.2,308z"/>
<g>
	<path style="fill:#CED5E0;" d="M457.2,407.2c-16.4,22-36.4,40.8-59.2,56.4c-40.8,28-90.4,44.4-143.6,44.4h-1.2
		c-53.2,0-102.8-16.4-143.6-44.4c-22.8-15.6-42.8-34.4-59.2-56.4c0-40.8,18.8-64.8,42-78.8c36-22,82-20.4,82-20.4
		c10.4,14.4,41.6,25.2,78.4,25.2h1.2c36.8,0,68-10.4,78.4-25.2c0,0,46-1.6,82,20.4C438.4,342.4,457.2,366.4,457.2,407.2z"/>
	<path style="fill:#CED5E0;" d="M348.8,380v110c-29.2,11.6-61.2,18-94.4,18h-1.2c-33.2,0-65.2-6.4-94.4-18V380H348.8z"/>
</g>
<g>
	<path style="fill:#FFFFFF;" d="M457.2,407.2c-16.4,22-36.4,40.8-59.2,56.4c-4.4-67.2,7.6-112,17.2-135.2
		C438.4,342.4,457.2,366.4,457.2,407.2z"/>
	<path style="fill:#FFFFFF;" d="M110,463.6c-22.8-15.6-42.8-34.4-59.2-56.4c0-40.8,18.8-64.8,42-78.8
		C102,351.6,114.4,396.4,110,463.6z"/>
</g>
<g>
	<path style="fill:#2B3B4E;" d="M249.2,305.6c0.4,0,0.8,0,1.6,0C250,305.6,249.6,305.6,249.2,305.6z"/>
	<path style="fill:#2B3B4E;" d="M245.6,305.6c1.2,0,2.4,0,3.6,0C248,305.6,246.8,305.6,245.6,305.6z"/>
	<path style="fill:#2B3B4E;" d="M241.6,305.6c0.8,0,2,0,2.8,0C243.6,305.6,242.4,305.6,241.6,305.6z"/>
	<path style="fill:#2B3B4E;" d="M244.4,305.6c0.4,0,0.8,0,1.2,0C245.2,305.6,244.8,305.6,244.4,305.6z"/>
	<path style="fill:#2B3B4E;" d="M250.4,305.6c0.4,0,1.2,0,1.6,0C251.6,305.6,251.2,305.6,250.4,305.6z"/>
	<path style="fill:#2B3B4E;" d="M252.8,305.6c0.4,0,0.8,0,1.2,0C254,305.6,253.6,305.6,252.8,305.6z"/>
	<path style="fill:#2B3B4E;" d="M239.2,305.6c-0.4,0-1.2,0-1.6,0l0,0C238,305.6,238.8,305.6,239.2,305.6z"/>
	<path style="fill:#2B3B4E;" d="M252,305.6c0.4,0,0.4,0,0.8,0C252.8,305.6,252.4,305.6,252,305.6z"/>
	<path style="fill:#2B3B4E;" d="M239.2,305.6c0.8,0,1.6,0,2.4,0C240.8,305.6,240,305.6,239.2,305.6z"/>
	<path style="fill:#2B3B4E;" d="M267.6,332.8c-0.8,0-1.2,0-2,0l0,0C266.4,332.8,266.8,332.8,267.6,332.8z"/>
	<path style="fill:#2B3B4E;" d="M267.6,332.8c0.8,0,2,0,2.8,0C269.2,332.8,268.4,332.8,267.6,332.8z"/>
	<path style="fill:#2B3B4E;" d="M265.6,332.8L265.6,332.8c-0.4,0-0.4,0-0.8,0C265.2,332.8,265.2,332.8,265.6,332.8z"/>
	<path style="fill:#2B3B4E;" d="M262.4,332.8c-2,0-4,0-6.4,0c-0.4,0-0.8,0-0.8,0h-0.4c0,0,4.4,0,10.8-0.4c-0.4,0-0.4,0-0.8,0
		C264,332.8,263.2,332.8,262.4,332.8z"/>
	<path style="fill:#2B3B4E;" d="M256,332.8c2.4,0,4.4,0,6.4,0C259.6,332.8,257.2,332.8,256,332.8z"/>
</g>
<path style="fill:#ACB3BA;" d="M254,305.6c0,0-6.8,0.4-16.4,0c-0.8,0-1.6,0-2,0c-2,0-4,0-5.6,0c-0.4,0-1.2,0-1.6,0
	c-0.4,0-0.8,0-1.2,0s-0.8,0-1.2,0c-1.6,0-2,0,0,0c0.4,0,0.8,0,1.2,0s0.8,0,1.2,0s0.8,0,1.6,0c1.6,0,3.6,0,5.6,0c0.8,0,1.2,0,2,0
	c-18.8-0.8-47.6-5.2-58.4-21.6l-4.4,24c0,0,18,26.8,79.6,25.2c0,0,0,0,0.4,0s0.4,0,0.8,0c1.2,0,3.6,0,6.4,0c0.8,0,1.6,0,2.4,0
	c0.4,0,0.4,0,0.8,0c18-0.8,53.2-5.6,67.6-24.8L328,284C328.4,283.6,320.4,306,254,305.6z"/>
<g>
	<path style="fill:#2B3B4E;" d="M254.8,333.2C254.8,333.2,254.8,332.8,254.8,333.2L254.8,333.2z"/>
	<path style="fill:#2B3B4E;" d="M235.6,305.2c-2.4,0-4.4,0-5.6,0C231.6,305.2,233.6,305.2,235.6,305.2z"/>
	<path style="fill:#2B3B4E;" d="M228.4,305.2c-0.4,0-0.8,0-1.2,0C227.6,305.2,228,305.2,228.4,305.2z"/>
	<path style="fill:#2B3B4E;" d="M226,305.2C224,305.2,224.4,305.2,226,305.2L226,305.2z"/>
</g>
<path style="fill:#FFFFFF;" d="M288.8,32.8h-69.6c-59.6,0-107.6,56.4-107.6,125.6V186c0,69.2,48,125.6,107.6,125.6h69.6
	c59.6,0,107.6-56.4,107.6-125.6v-27.6C396.4,89.2,348.4,32.8,288.8,32.8z"/>
<path style="fill:#84DBFF;" d="M150,133.6c-12,0-22,8.4-24,20c-0.8,5.6-1.6,11.2-1.6,16.8V194c0,52.4,42.4,94.8,94.8,94.8h69.6
	c52.4,0,94.8-42.4,94.8-94.8v-23.6c0-5.6-0.4-11.2-1.6-16.8c-2-11.6-12.4-20-24-20H150z"/>
<path style="fill:#54C0EB;" d="M382,153.6c-2-11.6-12.4-20-24-20h-80.8l-52.8,155.2h64.4c52.4,0,94.8-42.4,94.8-94.8v-23.6
	C383.6,164.8,383.2,159.2,382,153.6z"/>
<path style="fill:#ACB3BA;" d="M348.8,380v110c-29.2,11.6-61.2,18-94.4,18h-1.2c-33.2,0-65.2-6.4-94.4-18V380H348.8z"/>
<g>
	<rect x="159.2" y="410.8" style="fill:#324A5E;" width="190" height="13.2"/>
	<rect x="225.2" y="404.4" style="fill:#324A5E;" width="58" height="24.4"/>
</g>
</svg>