<?xml version="1.0" encoding="utf-8"?>
<!-- Uploaded to: SVG Repo, www.svgrepo.com, Generator: SVG Repo Mixer Tools -->
<svg width="800px" height="800px" viewBox="0 0 64 64" xmlns="http://www.w3.org/2000/svg">
<path d="m14.56 33.45c-3.68-6.72-2.75-13.25-1.17-18s7.42-10.45 14.67-11.71 12.94-.66 19.08 5.88 4.86 17.62 3.71 20.46-2.85 7.79-7.41 10.58a24 24 0 0 1 -8.75 3.34v1.92s2 .12 2.3.67a11.74 11.74 0 0 1 .25 2.66s11.76-6.17 11.76-6.42-.29-3.67 0-4 2-.55 3.67-.55 3.33 1.05 3.33 1.51.79 15.29.41 15.62a4.54 4.54 0 0 1 -1.7.46s-.71 5-1.88 4.92-2.83-4.46-2.83-4.46-1.17.16-1.25-.25-.36-6.08-.36-6.08l-10.87 5.62s.25 2.83-.13 3-10.45 1-10.75.13a14.7 14.7 0 0 1 -.33-2.92s-4.87-2.83-6.92-3.83-3-1.37-3-1.37a27.49 27.49 0 0 1 0 3.75c-.16.33-1 .37-1 .37s-1 4.63-2.79 4.75-3.5-4.2-3.5-4.2-1.1-.43-1.1-.64-.67-15.83-.42-16.08 1.61-1.17 4.42-1.13 3.79 1.21 3.87 1.71.17 5.5.17 5.5l9.23 4.34s-.08-2.38.75-2.8a5.07 5.07 0 0 1 2.12-.33l-.12-2s-7.96-.38-13.46-10.42z" fill="#1d1d1b"/>
<path d="m31.1 5.54c6-.57 11.79 1.08 15.59 6.08s3.87 15.29 1.62 20-5.37 9.25-10.71 10.38-13.54.34-17.54-4.33-6.83-11.29-6-16.79 5.13-14.22 17.04-15.34z" fill="#e6e4da"/>
<path d="m25.19 17.58c1.49-1.29 5.87-2.29 8.5-2.63s4.7.88 4.29 4-1.63 10.5-3.63 11.92-5.21.91-5.83.21-3.46-8-3.79-9.34-.73-3.12.46-4.16z" fill="#1d1d1b"/>
<path d="m27.19 18.12c.59-.34 7.5-2 8.29-1.38s0 3.55 0 3.55-.83-.46-1-.34-.63.5-.33.67 1.08.29 1.08.5a7 7 0 0 1 -.21 1s-2.17-1.17-2.33-.84-.25.38-.09.55 2.34.75 2.3 1.08-.13.79-.13.79a21.66 21.66 0 0 0 -3-1.08c-.08.12-.33.66-.21.79s2.92 1 2.88 1.29-.21.92-.21.92a19.23 19.23 0 0 0 -3-1.25c-.08.16-.33.54-.08.71s3.08 1.25 3 1.45-.17.8-.34.75-2.91-1.37-3.16-1.2-.38.62-.17.75a23.51 23.51 0 0 1 3.21 1.45c0 .21 0 .63-.17.67s-2.79-1-2.92-.92-.33.5 0 .71 2.71.71 2.5.92a4 4 0 0 1 -1.91.54c-.8 0-1.17.17-2.3-2.46a40.81 40.81 0 0 1 -2.5-7.83c0-.91-.08-1.29.8-1.79z" fill="#92a0d1"/>
<g fill="#1d1d1b">
<path d="m28.89 7.54c.06-.17.84-.25 1 0a23.26 23.26 0 0 1 .75 4.46c-.16.21-.54.42-.62.25a43.4 43.4 0 0 1 -1.13-4.71z"/>
<path d="m34.1 7.12a.73.73 0 0 1 1 .21 13.2 13.2 0 0 1 -.41 4.37c-.25.09-.63.09-.67-.08a33.8 33.8 0 0 1 .08-4.5z"/>
<path d="m41.64 10.74c.32-.21.92.75.59 1s-2.84 2.5-3 2.46-.59-.12-.42-.29 2.71-3.08 2.83-3.17z"/>
<path d="m39.94 19.12c0-.13 4.91-1.25 5.12-1s.58.79.17.92a46.81 46.81 0 0 1 -5.29.87c-.17-.08.06-.62 0-.79z"/>
<path d="m40.1 23.29c.16-.08 6.29.29 6.29.58s.25.58-.12.62a56.78 56.78 0 0 1 -6.13-.49c-.2-.13-.37-.55-.04-.71z"/>
<path d="m40 28.08c.16-.06 4.62 1.33 4.5 1.66s-.21.59-.42.59a33.76 33.76 0 0 1 -4.5-1.54c-.27-.25.15-.63.42-.71z"/>
<path d="m37.23 32.08c.15-.11 4.46 4.41 4.29 4.62s-.5.59-.75.5-4.42-4.46-4.25-4.66a2.72 2.72 0 0 1 .71-.46z"/>
<path d="m30.23 34.33c1.68-1 5 .08 4.33 3.21a3 3 0 0 1 -5.12 1.46 3.12 3.12 0 0 1 .79-4.67z"/>
</g>
<path d="m30.76 35.29a1.85 1.85 0 0 1 2.74 2 1.9 1.9 0 0 1 -3.25 1 2 2 0 0 1 .51-3z" fill="#f2910d"/>
<path d="m24.23 31.87c.26-.05.62.12.54.46a21 21 0 0 1 -3.29 3.58c-.25 0-.75-.17-.63-.46s2.92-3.45 3.38-3.58z" fill="#1d1d1b"/>
<path d="m17.14 28.54c.07-.39 4.67-2.05 4.88-1.84s.46.71.21.84-4.59 1.95-4.75 1.91-.38-.66-.34-.91z" fill="#1d1d1b"/>
<path d="m15.81 21.62a46.89 46.89 0 0 1 5.58 1c.17.16.3.46.05.54s-5.88-.63-5.88-.63.04-.79.25-.91z" fill="#1d1d1b"/>
<path d="m17.56 16c.16-.06 4.54 1.45 4.54 1.7s-.25.75-.41.71-4.25-1.41-4.42-1.5.04-.79.29-.91z" fill="#1d1d1b"/>
<path d="m22.64 10.62c0-.15.71-.71.92-.58s3.25 3.66 3 4-.58.59-.71.46-3.16-3.67-3.21-3.88z" fill="#1d1d1b"/>
<path d="m29.23 44.08c.11-.08 1 .16 2.37.29s1.88-.29 2 0a3.66 3.66 0 0 1 0 1.67c-.12 0-1.79-.17-2.75-.13s-1.54.21-1.58 0-.27-1.67-.04-1.83z" fill="#ddc07c"/>
<path d="m9.35 39.45c.23-.34 1.79-.62 3-.58s2 .58 2.13.92.42 12.75 0 12.83a14.64 14.64 0 0 0 -3 .25c-1 .33-1.71.62-1.71.62s-.67-13.66-.42-14.04z" fill="#e6e4da"/>
<path d="m10.56 40.2c.31-.3 1-.25 1.08 0s.21 3.21-.08 3.5-1.08.29-1.08 0a19.41 19.41 0 0 1 .08-3.5z" fill="#1d1d1b"/>
<path d="m10.44 55c0-.43 1.25-.71 2.29-.66s1.58.25 1.58.5-1 3.45-1.62 3.58-2.25-2.8-2.25-3.42z" fill="#f2910d"/>
<path d="m16.44 46.24c.24-.18 9.29 4.09 9.29 4.3a22.15 22.15 0 0 1 .08 3.33c-.17.08-.71-.25-.71-.25a12.3 12.3 0 0 0 -.16-2.62c-.21-.08-1-.08-1 .09s.37 2.33.16 2.25-1.2-.55-1.2-.71.2-1.42 0-1.5-.92-.46-.88-.25 0 1.29 0 1.29-5.66-2.25-5.66-2.5a22.42 22.42 0 0 1 .08-3.43z" fill="#ddc07c"/>
<path d="m27.48 47.79c.15-.24 7.83-.42 7.91 0a20.13 20.13 0 0 1 .13 3.41c-.13-.08-1-1-1.13-.83s-.41.58-.29.71 1.54 1.08 1.59 1.41.08 1.38.08 1.38-1.54-1.87-1.77-1.79-.54.58-.38.75a33.48 33.48 0 0 1 2.29 2.66c.13.3.34 1.46.09 1.5a2 2 0 0 1 -.92 0c-.12-.08-2-2.91-2.17-2.91s-.58.25-.54.37a18.48 18.48 0 0 1 1.48 2.55 2.67 2.67 0 0 1 -1.29 0 14.66 14.66 0 0 0 -1.37-2c-.21 0-.92.29-.8.5s.8 1.42.63 1.46-2.58.33-2.88 0-.83-8.96-.66-9.17z" fill="#e6e4da"/>
<path d="m28.81 48.87c.22-.11.71-.25.79.08s.34 3 0 3.09-.54.41-.7.08-.34-3.12-.09-3.25z" fill="#1d1d1b"/>
<path d="m37.6 50.2c.29-.08 10.92-6.12 11-5.87a35.5 35.5 0 0 1 .13 4.25 66.7 66.7 0 0 1 -7.54 4c0-.21.16-2.29 0-2.38s-.66-.16-.66 0 .21 2.71 0 2.75-1 .75-1 .5a18.79 18.79 0 0 0 -.17-2.83c-.12 0-1 .29-1 .54s.38 2.63.13 2.79a9.94 9.94 0 0 1 -1 .5s-.18-4.16.11-4.25z" fill="#ddc07c"/>
<path d="m50.48 39.74c.23-.36 1.62-.08 2.62.13a4.73 4.73 0 0 1 1.34.42s.16 10.7 0 10.54-1-1.17-1.25-1.17-.5.71-.42.88 1.58 1.12 1.63 1.37a4.4 4.4 0 0 1 0 .75s-1.75-1.46-1.92-1.37-.42.7-.21.87a17.84 17.84 0 0 1 2.25 2c0 .21 0 .5-.29.38s-1.88-1.54-2.23-1.46a.66.66 0 0 0 -.38.87 6.4 6.4 0 0 0 .84.67s-1.55.54-1.71.21-.48-14.75-.27-15.09z" fill="#e6e4da"/>
<path d="m51.19 56c0-.33 1.54-.21 1.91-.25a1.15 1.15 0 0 1 .75.29s-.71 3.13-1.12 3.17-1.5-2.8-1.54-3.21z" fill="#f2910d"/>
</svg>