<svg id="erpLvqd3hcw1" xmlns="http://www.w3.org/2000/svg" xmlns:xlink="http://www.w3.org/1999/xlink" viewBox="0 0 300 300" shape-rendering="geometricPrecision" text-rendering="geometricPrecision"><path d="M149.999999,-0.000285c0,0,38.131318,22.805854,50,64.871161s0,235.129439,0,235.129439h-100c0,0-14.235513-193.341187,0-235.129439s50-64.871161,50-64.871161Z" transform="matrix(.667334 0 0 0.999998 49.899901 0.000285)" fill="none" stroke="#3f5787" stroke-width="2"/><path d="M183.3667,300c0,0,9.554469-9.31039,26.870542-15s89.762758-18.102681,89.762758-18.102681v-43.741505c0,0-72.808219-46.518781-89.762758-73.155814s-26.870542-85.128968-26.870542-85.128968" fill="none" stroke="#3f5787"/><path d="M116.6333,299.999999c0,0-9.429182-7.873136-26.6333-15s-90-18.102681-90-18.102681v-43.741505c0,0,73.031615-46.567809,90-73.155814s26.6333-85.128968,26.6333-85.128968" transform="translate(0 0.000001)" fill="none" stroke="#3f5787"/></svg>
